<svg xmlns="http://www.w3.org/2000/svg" width="25.936" height="25.955" viewBox="0 0 25.936 25.955">
  <g id="XMLID_2_" transform="translate(0)">
    <g id="XMLID_112_">
      <path id="XMLID_117_" d="M952.2,682.5H939.931a6.928,6.928,0,0,0-6.831,6.986v11.984a6.94,6.94,0,0,0,6.831,6.986H952.2a6.928,6.928,0,0,0,6.831-6.986V689.486A6.928,6.928,0,0,0,952.2,682.5Zm4.516,18.8a4.8,4.8,0,0,1-4.728,4.844H940.163a4.8,4.8,0,0,1-4.728-4.844V689.659a4.8,4.8,0,0,1,4.728-4.844h11.829a4.8,4.8,0,0,1,4.728,4.844Z" transform="translate(-933.1 -682.5)" fill="#ff7600"/>
      <path id="XMLID_114_" d="M973.023,715.2a6.659,6.659,0,1,0,6.522,6.658A6.594,6.594,0,0,0,973.023,715.2Zm0,10.98a4.3,4.3,0,1,1,4.207-4.3A4.263,4.263,0,0,1,973.023,726.18Z" transform="translate(-960.055 -708.89)" fill="#ff7600"/>
      <ellipse id="XMLID_71_" cx="1.467" cy="1.505" rx="1.467" ry="1.505" transform="translate(18.371 4.458)" fill="#ff7600"/>
    </g>
  </g>
</svg>
