<svg xmlns="http://www.w3.org/2000/svg" width="26.826" height="22.394" viewBox="0 0 26.826 22.394">
  <g id="XMLID_36_" transform="translate(0)">
    <path id="Twitter_1_" d="M393.5,706.211a11.041,11.041,0,0,1-3.49,1.368,5.448,5.448,0,0,0-4.015-1.779,5.579,5.579,0,0,0-5.5,5.656,5.915,5.915,0,0,0,.137,1.277,15.478,15.478,0,0,1-11.36-5.906,5.752,5.752,0,0,0,1.688,7.548,5.093,5.093,0,0,1-2.487-.707v.068a5.62,5.62,0,0,0,4.425,5.541,5.129,5.129,0,0,1-1.46.205,4.91,4.91,0,0,1-1.027-.091,5.555,5.555,0,0,0,5.155,3.922,10.966,10.966,0,0,1-6.843,2.417,12.841,12.841,0,0,1-1.323-.068,15.375,15.375,0,0,0,8.44,2.531c10.128,0,15.671-8.6,15.671-16.054,0-.251,0-.5-.023-.73a11.128,11.128,0,0,0,2.737-2.919,10.56,10.56,0,0,1-3.171.889A5.851,5.851,0,0,0,393.5,706.211Z" transform="translate(-367.4 -705.8)" fill="#ff7600"/>
  </g>
</svg>
